<svg width="33" height="33" viewBox="0 0 33 33" fill="none" xmlns="http://www.w3.org/2000/svg">
<path d="M10.7251 2.47517C8.56825 2.47279 6.49622 3.31519 4.95288 4.82191C3.40954 6.32863 2.51764 8.37984 2.46824 10.5362C2.41883 12.6925 3.21585 14.7824 4.68857 16.3582C6.16128 17.934 8.19256 18.8704 10.3473 18.9668C10.1258 19.7685 9.98594 20.5905 9.92983 21.4204C7.88202 21.2681 5.92097 20.5312 4.27968 19.2972C2.63839 18.0631 1.38588 16.3838 0.670967 14.4588C-0.043945 12.5338 -0.191199 10.4441 0.246702 8.43784C0.684603 6.43162 1.68925 4.59328 3.14126 3.14126C4.59328 1.68925 6.43162 0.684603 8.43784 0.246702C10.4441 -0.191199 12.5338 -0.043945 14.4588 0.670967C16.3838 1.38588 18.0631 2.63839 19.2972 4.27968C20.5312 5.92097 21.2681 7.88202 21.4204 9.92983C20.5905 9.98594 19.7685 10.1258 18.9668 10.3473C18.8696 8.22683 17.9588 6.22544 16.4238 4.75929C14.8888 3.29315 12.8478 2.47507 10.7251 2.47517ZM22.2751 11.5501C19.4306 11.5501 16.7027 12.6801 14.6914 14.6914C12.6801 16.7027 11.5501 19.4306 11.5501 22.2751C11.5501 25.1195 12.6801 27.8474 14.6914 29.8587C16.7027 31.8701 19.4306 33 22.2751 33C25.1195 33 27.8474 31.8701 29.8587 29.8587C31.8701 27.8474 33 25.1195 33 22.2751C33 19.4306 31.8701 16.7027 29.8587 14.6914C27.8474 12.6801 25.1195 11.5501 22.2751 11.5501ZM14.0251 22.2751C14.0251 20.087 14.8943 17.9886 16.4415 16.4415C17.9886 14.8943 20.087 14.0251 22.2751 14.0251C24.4631 14.0251 26.5615 14.8943 28.1087 16.4415C29.6558 17.9886 30.525 20.087 30.525 22.2751C30.525 24.4631 29.6558 26.5615 28.1087 28.1087C26.5615 29.6558 24.4631 30.525 22.2751 30.525C20.087 30.525 17.9886 29.6558 16.4415 28.1087C14.8943 26.5615 14.0251 24.4631 14.0251 22.2751Z" fill="white"/>
<path d="M4.81317 4.6788C6.39387 3.13561 8.51604 2.2728 10.7251 2.27517L4.81317 4.6788ZM4.81317 4.6788C3.23241 6.22205 2.31889 8.32299 2.26829 10.5316M4.81317 4.6788L2.26829 10.5316M2.26829 10.5316C2.21769 12.7402 3.03403 14.8807 4.54245 16.4948M2.26829 10.5316L4.54245 16.4948M4.54245 16.4948C5.99442 18.0484 7.9765 18.9952 10.0912 19.1519M4.54245 16.4948L10.0912 19.1519M10.0912 19.1519C9.91933 19.8253 9.80375 20.5117 9.74564 21.2042M10.0912 19.1519L9.74564 21.2042M9.74564 21.2042C7.80814 21.0232 5.9573 20.3083 4.39987 19.1373C2.78919 17.9263 1.56003 16.2783 0.858454 14.3892C0.156875 12.5001 0.0123665 10.4493 0.442102 8.48049C0.871837 6.51168 1.85775 4.70762 3.28269 3.28269C4.70762 1.85775 6.51168 0.871837 8.48049 0.442102C10.4493 0.0123665 12.5001 0.156875 14.3892 0.858454C16.2783 1.56003 17.9263 2.78919 19.1373 4.39987C20.3083 5.9573 21.0232 7.80814 21.2042 9.74564C20.5116 9.80376 19.8251 9.91936 19.1517 10.0912C18.9953 8.01136 18.0745 6.05933 16.562 4.61467C14.9898 3.11303 12.8994 2.27513 10.7253 2.27517L9.74564 21.2042ZM14.8328 14.8328C16.8066 12.859 19.4837 11.7501 22.2751 11.7501C25.0664 11.7501 27.7435 12.859 29.7173 14.8328C31.6911 16.8066 32.8 19.4837 32.8 22.2751C32.8 25.0664 31.6911 27.7435 29.7173 29.7173C27.7435 31.6911 25.0664 32.8 22.2751 32.8C19.4837 32.8 16.8066 31.6911 14.8328 29.7173C12.859 27.7435 11.7501 25.0664 11.7501 22.2751C11.7501 19.4837 12.859 16.8066 14.8328 14.8328ZM16.3 16.3C14.7154 17.8847 13.8251 20.034 13.8251 22.2751C13.8251 24.5161 14.7154 26.6654 16.3 28.2501C17.8847 29.8348 20.034 30.725 22.2751 30.725C24.5161 30.725 26.6654 29.8348 28.2501 28.2501C29.8348 26.6654 30.725 24.5161 30.725 22.2751C30.725 20.034 29.8348 17.8847 28.2501 16.3C26.6654 14.7154 24.5161 13.8251 22.2751 13.8251C20.034 13.8251 17.8847 14.7154 16.3 16.3Z" stroke="#00B7DF" stroke-opacity="0.97" stroke-width="0.4"/>
</svg>
