<svg xmlns="http://www.w3.org/2000/svg" width="304.925" height="304.925" viewBox="0 0 304.925 304.925"><defs><style>.a,.b,.c{fill:#00c2c4;}.a{opacity:0.5;}.b{opacity:0.3;}.c{opacity:0.2;}</style></defs><g transform="translate(-1256.702 -387.152)"><g transform="translate(1154 120)"><path class="a" d="M182.99,294.61h-2.83a50.005,50.005,0,0,0-50,50v2.83l33.49-19.34Z"/><path class="a" d="M380.16,347.44v-2.83a50.005,50.005,0,0,0-50-50h-2.83l19.34,33.49Z"/><path class="a" d="M130.16,491.78v2.83a50.005,50.005,0,0,0,50,50h2.83l-19.34-33.49Z"/><path class="a" d="M327.33,544.61h2.83a50.005,50.005,0,0,0,50-50v-2.83l-33.49,19.34Z"/><path class="b" d="M130.16,347.44l-2.45,1.42a50,50,0,0,0-18.3,68.3l1.42,2.45,19.34-33.49V347.44Z"/><path class="b" d="M182.99,544.61l1.42,2.45a50,50,0,0,0,68.3,18.3l2.45-1.42L221.67,544.6H182.99Z"/><path class="b" d="M327.33,294.61l-1.42-2.45a50,50,0,0,0-68.3-18.3l-2.45,1.42,33.49,19.34h38.68Z"/><path class="b" d="M399.5,419.61,380.16,453.1v38.68l2.45-1.42a50,50,0,0,0,18.3-68.3Z"/><path class="a" d="M163.66,328.11l-33.5,19.33v38.68Z"/><path class="b" d="M163.66,328.11l-33.5,19.33v38.68Z"/><path class="a" d="M346.67,511.12l33.49-19.34V453.11Z"/><path class="b" d="M346.67,511.12l33.49-19.34V453.11Z"/><path class="a" d="M346.67,328.11l-19.34-33.5H288.66Z"/><path class="b" d="M346.67,328.11l-19.34-33.5H288.66Z"/><path class="a" d="M163.66,511.12l19.33,33.49h38.68Z"/><path class="b" d="M163.66,511.12l19.33,33.49h38.68Z"/><path class="c" d="M399.5,419.61l1.42-2.45a50,50,0,0,0-18.3-68.3l-2.45-1.42v38.68Z"/><path class="c" d="M255.16,275.28l-2.45-1.42a50,50,0,0,0-68.3,18.3l-1.42,2.45h38.68Z"/><path class="c" d="M255.16,563.95l2.45,1.42a50,50,0,0,0,68.3-18.3l1.42-2.45H288.65Z"/><path class="c" d="M110.83,419.61l-1.42,2.45a50,50,0,0,0,18.3,68.3l2.45,1.42V453.1Z"/><path class="a" d="M380.16,386.12V347.44l-33.49-19.33Z"/><path class="c" d="M380.16,386.12V347.44l-33.49-19.33Z"/><path class="a" d="M221.67,294.61H182.99l-19.33,33.5Z"/><path class="c" d="M221.67,294.61H182.99l-19.33,33.5Z"/><path class="a" d="M130.16,453.11v38.67l33.5,19.34Z"/><path class="c" d="M130.16,453.11v38.67l33.5,19.34Z"/><path class="a" d="M288.66,544.61h38.67l19.34-33.49Z"/><path class="c" d="M288.66,544.61h38.67l19.34-33.49Z"/><path class="b" d="M380.16,453.11l19.34-33.5-19.34-33.49Z"/><path class="c" d="M380.16,453.11l19.34-33.5-19.34-33.49Z"/><path class="b" d="M221.67,544.61l33.49,19.34,33.5-19.34Z"/><path class="c" d="M221.67,544.61l33.49,19.34,33.5-19.34Z"/><path class="b" d="M130.16,386.12l-19.33,33.49,19.33,33.5Z"/><path class="c" d="M130.16,386.12l-19.33,33.49,19.33,33.5Z"/><path class="b" d="M288.66,294.61l-33.5-19.33-33.49,19.33Z"/><path class="c" d="M288.66,294.61l-33.5-19.33-33.49,19.33Z"/><path class="a" d="M346.67,328.11l-58.01-33.49H221.67l-58.01,33.49-33.49,58.01v66.99l33.49,58.01,58.01,33.49h66.99l58.01-33.49,33.49-58.01V386.12Zm-60.46,180.6V443.14h-62.1v10.35h51.75v55.22H265.51V463.84h-20.7v44.87H234.46V463.84H224.11v44.87H213.76V330.51h10.35V432.79h10.35V330.51h10.35V432.79h20.7V330.51h10.35V432.79h10.35V330.51h10.35v178.2H286.21Z"/><path class="b" d="M346.67,328.11l-58.01-33.49H221.67l-58.01,33.49-33.49,58.01v66.99l33.49,58.01,58.01,33.49h66.99l58.01-33.49,33.49-58.01V386.12Zm-60.46,180.6V443.14h-62.1v10.35h51.75v55.22H265.51V463.84h-20.7v44.87H234.46V463.84H224.11v44.87H213.76V330.51h10.35V432.79h10.35V330.51h10.35V432.79h20.7V330.51h10.35V432.79h10.35V330.51h10.35v178.2H286.21Z"/><path class="c" d="M346.67,328.11l-58.01-33.49H221.67l-58.01,33.49-33.49,58.01v66.99l33.49,58.01,58.01,33.49h66.99l58.01-33.49,33.49-58.01V386.12Zm-60.46,180.6V443.14h-62.1v10.35h51.75v55.22H265.51V463.84h-20.7v44.87H234.46V463.84H224.11v44.87H213.76V330.51h10.35V432.79h10.35V330.51h10.35V432.79h20.7V330.51h10.35V432.79h10.35V330.51h10.35v178.2H286.21Z"/></g></g></svg>